<svg xmlns="http://www.w3.org/2000/svg" viewBox="0 0 100 100" fill="none">
  <defs>
    <linearGradient id="shieldGrad" x1="0%" y1="0%" x2="100%" y2="100%">
      <stop offset="0%" style="stop-color:#f59e0b"/>
      <stop offset="100%" style="stop-color:#d97706"/>
    </linearGradient>
  </defs>
  <!-- Bridge deck (horizontal) -->
  <rect x="8" y="42" width="84" height="8" rx="2" fill="#f59e0b" stroke="#b45309" stroke-width="1"/>
  <!-- Bridge supports -->
  <rect x="18" y="50" width="4" height="28" rx="1" fill="#d97706"/>
  <rect x="78" y="50" width="4" height="28" rx="1" fill="#d97706"/>
  <!-- Bridge arch -->
  <path d="M22 50 Q50 35 78 50" stroke="#b45309" stroke-width="3" fill="none" stroke-linecap="round"/>
  <!-- Shield (guard symbol) -->
  <path d="M50 20 L75 28 L75 55 Q75 75 50 85 Q25 75 25 55 L25 28 Z" fill="url(#shieldGrad)" stroke="#b45309" stroke-width="2"/>
  <!-- Shield inner highlight -->
  <path d="M50 28 L67 33 L67 53 Q67 68 50 75 Q33 68 33 53 L33 33 Z" fill="#fef3c7" opacity="0.3"/>
  <!-- Center key/logo mark -->
  <circle cx="50" cy="52" r="8" fill="#78350f"/>
  <circle cx="50" cy="52" r="4" fill="#fef3c7"/>
</svg>